<svg width="590" height="200" viewBox="0 0 590 200" fill="none" xmlns="http://www.w3.org/2000/svg">
<path d="M7.44482 181.021C12.9075 133 33.6943 97.9339 60.2452 97.9339C76.1261 97.9339 86.219 110.589 83.3532 128.703C81.7399 139.373 79.8698 150.291 77.6909 162.946C75.1512 178.827 82.4103 191.234 104.404 191.234C136.48 191.234 171.472 173.409 189.38 145.801C195.481 136.395 197.962 127.959 198.21 119.77C198.459 104.882 190.022 93.7156 175.134 93.7156C156.275 93.7156 141.883 115.056 141.883 142.351C141.883 171.631 157.764 192.227 191.49 192.227C237.348 192.227 288.142 137.178 311.481 75.7445C318.071 58.399 320.543 42.2925 320.543 31.0372C320.543 17.6917 316.325 7.44421 304.414 7.44421C292.751 7.44421 285.059 16.5001 278.111 30.7989C269.971 47.3827 263.949 71.3022 261.486 98.3409C255.282 166.187 269.178 191.234 302.218 191.234C342.282 191.234 386.825 135.42 409.568 75.5546C416.086 58.399 418.558 42.2925 418.558 31.0372C418.558 17.6917 414.339 7.44421 402.429 7.44421C390.766 7.44421 383.074 16.5001 376.126 30.7989C367.986 47.3827 361.964 71.3022 359.501 98.3409C353.297 166.187 367.193 191.234 396.698 191.234C426.157 191.234 442.16 165.556 451.754 138.288C461.238 111.333 472.9 94.7081 497.218 94.7081C517.317 94.7081 533.198 109.596 533.198 137.636C533.198 168.654 513.074 191.979 487.644 192.227C465.266 192.475 450.568 174.361 452.057 147.065C453.794 116.792 472.156 94.7081 496.225 94.7081C510.121 94.7081 521.792 100.885 530.965 107.611C555.832 125.752 574.992 114.542 582.33 96.6046" stroke="white" style="stroke:white;stroke-opacity:1;" stroke-width="14.8883" stroke-linecap="round"/>
</svg>
